<svg class="css-1j8o68f" width="374.26" height="83.154" version="1.1" viewBox="-4 0 374.26 83.154" xmlns="http://www.w3.org/2000/svg">
 <g transform="matrix(.98351 0 0 .98351 -20.808 -7.5986)" featurekey="HKaMnE-0">
  <path d="m50 92.274c-0.77 0-1.54-0.222-2.21-0.666-0.955-0.633-1.915-1.265-2.874-1.896-6.012-3.956-12.229-8.046-17.127-12.431-7.299-6.534-10.699-12.706-10.699-19.422v-35.293c0-1.065 0.425-2.086 1.181-2.837 0.493-0.49 12.302-12.003 31.729-12.003s31.237 11.513 31.73 12.003c0.756 0.751 1.181 1.772 1.181 2.837v35.293c0 6.715-3.399 12.887-10.699 19.423-4.902 4.388-11.125 8.481-17.143 12.441-0.954 0.627-1.909 1.256-2.859 1.885-0.671 0.445-1.44 0.666-2.21 0.666zm-24.91-67.899v33.484c0 4.276 2.553 8.555 8.035 13.462 4.455 3.988 10.42 7.913 16.188 11.708 0.229 0.151 0.458 0.302 0.687 0.452 0.224-0.147 0.448-0.294 0.671-0.441 5.774-3.799 11.744-7.727 16.204-11.719 5.481-4.908 8.035-9.186 8.035-13.462v-33.471c-3.087-2.485-12.058-8.662-24.91-8.662-12.958 0-21.844 6.156-24.91 8.649z"/>
 </g>
 <g transform="matrix(3.3503 0 0 3.3503 78.882 .92605)" featurekey="J3GnXt-0">
  <path d="m7.6953 5.889c2.7637 0 4.4824 2.0508 4.4824 4.5605 0 2.5684-1.7188 4.4922-4.4824 4.4922h-2.9395v5.0586h-2.9297v-14.111h5.8691zm-0.4883 6.6012c1.4648 0 2.1484-0.81055 2.1484-2.0801 0-1.2207-0.68359-2.0703-2.1484-2.0703h-2.4512v4.1504zm13.711-2.5292h2.8125v10.039h-2.666l-0.06836-1.2109c-0.70313 0.88867-1.8164 1.4063-3.1934 1.4063-2.4121 0-3.7402-1.2598-3.7402-3.4766v-6.7578h2.8223v6.1523c0 1.3281 0.83008 1.8164 1.8066 1.8164 1.1621 0 2.2168-0.58594 2.2266-2.4316v-5.5371zm8.4179 1.5917c0.50781-0.88867 1.8262-1.709 3.2813-1.709v2.5098c-2.1289 0-3.1445 0.625-3.1445 2.7539v4.8926h-2.832v-10.039h2.6953v1.5918zm14.375 3.2813-0.0293 0.67383h-7.4414c0.11719 1.6699 1.2305 2.4707 2.5684 2.4707 1.0059 0 1.7871-0.46875 2.168-1.3574l2.5781 0.38086c-0.66406 2.0313-2.4707 3.1934-4.7266 3.1934-3.2422 0-5.3613-1.9141-5.3613-5.2148s2.1777-5.2344 5.2734-5.2344c2.8418 0 4.9609 1.5723 4.9707 5.0879zm-4.9507-3.0957c-1.2793 0-2.168 0.5957-2.4414 1.9336h4.6094c-0.14648-1.2793-1.0156-1.9336-2.168-1.9336zm7.4609 8.2617v-14.111h5.1074c4.502 0 6.7285 2.832 6.7285 7.0508 0 4.2285-2.2266 7.0605-6.7285 7.0605h-5.1074zm2.9297-2.5879h2.0313c2.5977 0 3.7891-1.6211 3.7891-4.4727s-1.1914-4.4727-3.7891-4.4727h-2.0313v8.9453zm21.289-11.523h2.9199v14.111h-3.3887l-6.25-10.088v10.088h-2.9199v-14.111h3.3496l6.2891 10.029zm11.26 14.306c-3.0273 0-5.3906-1.4551-5.8203-4.1016l3.0273-0.69336c0.19531 1.582 1.3574 2.4023 2.9102 2.4023 1.1914 0 2.1387-0.52734 2.1289-1.7188-0.0098-1.3281-1.5723-1.748-3.291-2.2754-2.0703-0.64453-4.2871-1.4063-4.2871-4.0039 0-2.627 2.1484-4.1113 4.9805-4.1113 2.4805 0 4.9805 1.0059 5.5469 3.7109l-2.832 0.70313c-0.26367-1.4063-1.2109-2.0215-2.5391-2.0215-1.1816 0-2.1875 0.48828-2.1875 1.6504 0 1.084 1.3867 1.4453 2.9883 1.9238 2.1289 0.64453 4.6484 1.4648 4.6484 4.2773 0 2.998-2.5098 4.2578-5.2734 4.2578z"/>
 </g>
</svg>
