<?xml version="1.0" encoding="UTF-8"?>
<svg class="css-1j8o68f" width="104.29" height="104.29" version="1.1" viewBox="-4 0 104.29 104.29" xmlns="http://www.w3.org/2000/svg">
 <g transform="translate(-97.953 58.137)" fill="#fff">
  <rect x="93.953" y="-58.137" width="104.29" height="104.29" opacity=".95"/>
  <g transform="matrix(1.2334 0 0 1.2334 84.431 -67.658)" featurekey="HKaMnE-0">
   <path d="m50 92.274c-0.77 0-1.54-0.222-2.21-0.666-0.955-0.633-1.915-1.265-2.874-1.896-6.012-3.956-12.229-8.046-17.127-12.431-7.299-6.534-10.699-12.706-10.699-19.422v-35.293c0-1.065 0.425-2.086 1.181-2.837 0.493-0.49 12.302-12.003 31.729-12.003s31.237 11.513 31.73 12.003c0.756 0.751 1.181 1.772 1.181 2.837v35.293c0 6.715-3.399 12.887-10.699 19.423-4.902 4.388-11.125 8.481-17.143 12.441-0.954 0.627-1.909 1.256-2.859 1.885-0.671 0.445-1.44 0.666-2.21 0.666zm-24.91-67.899v33.484c0 4.276 2.553 8.555 8.035 13.462 4.455 3.988 10.42 7.913 16.188 11.708 0.229 0.151 0.458 0.302 0.687 0.452 0.224-0.147 0.448-0.294 0.671-0.441 5.774-3.799 11.744-7.727 16.204-11.719 5.481-4.908 8.035-9.186 8.035-13.462v-33.471c-3.087-2.485-12.058-8.662-24.91-8.662-12.958 0-21.844 6.156-24.91 8.649z" fill="#fff"/>
  </g>
 </g>
</svg>
